<?xml version="1.0" encoding="UTF-8"?>
<svg id="A_EXPORTER" data-name="A EXPORTER" xmlns="http://www.w3.org/2000/svg" xmlns:xlink="http://www.w3.org/1999/xlink" viewBox="0 0 744 1394">
  <defs>
    <style>
      .cls-1 {
        fill: #252625;
      }

      .cls-1, .cls-2, .cls-3, .cls-4, .cls-5 {
        stroke-width: 0px;
      }

      .cls-2 {
        fill: #313033;
      }

      .cls-6 {
        stroke: #585756;
        stroke-linecap: round;
        stroke-width: 3px;
      }

      .cls-6, .cls-3, .cls-7, .cls-8 {
        fill: none;
      }

      .cls-6, .cls-7, .cls-8 {
        stroke-miterlimit: 10;
      }

      .cls-4 {
        fill: #1d1e1b;
      }

      .cls-9 {
        clip-path: url(#clippath-1);
      }

      .cls-5 {
        fill: #93794a;
      }

      .cls-7 {
        stroke: #93794a;
        stroke-width: 4px;
      }

      .cls-10 {
        clip-path: url(#clippath);
      }

      .cls-8 {
        stroke: #1d1e1b;
        stroke-width: 6.5px;
      }
    </style>
    <clipPath id="clippath">
      <rect class="cls-3" x="0" y="0" width="744" height="1394"/>
    </clipPath>
    <clipPath id="clippath-1">
      <rect class="cls-3" x="0" y="0" width="744" height="1394"/>
    </clipPath>
  </defs>
  <g id="EORZEAN">
    <g class="cls-10">
      <g class="cls-9">
        <path class="cls-4" d="M701.49,29c7.45,0,13.51,6.06,13.51,13.51v1308.99c0,7.45-6.06,13.51-13.51,13.51H42.51c-7.45,0-13.51-6.06-13.51-13.51V42.51c0-7.45,6.06-13.51,13.51-13.51h658.99ZM701.49,0H42.51C19.03,0,0,19.03,0,42.51v1308.99c0,23.48,19.03,42.51,42.51,42.51h658.99c23.48,0,42.51-19.03,42.51-42.51V42.51C744,19.03,724.97,0,701.49,0"/>
        <path class="cls-5" d="M701.49,27c8.55,0,15.51,6.96,15.51,15.51v1308.99c0,8.55-6.96,15.51-15.51,15.51H42.51c-8.55,0-15.51-6.96-15.51-15.51V42.51c0-8.55,6.96-15.51,15.51-15.51h658.99ZM701.49,0H42.51C19.03,0,0,19.03,0,42.51v1308.99c0,23.48,19.03,42.51,42.51,42.51h658.99c23.48,0,42.51-19.03,42.51-42.51V42.51C744,19.03,724.97,0,701.49,0"/>
        <path class="cls-2" d="M675.81,1337.23H70.43c-6.59,0-11.93-5.34-11.93-11.92v-333.07c0-6.59,5.34-11.92,11.93-11.92h605.38c6.59,0,11.92,5.34,11.92,11.92v333.07c0,6.59-5.34,11.92-11.92,11.92"/>
        <rect class="cls-8" x="58.51" y="980.32" width="629.23" height="356.92" rx="11.92" ry="11.92"/>
        <rect class="cls-7" x="58.51" y="980.32" width="629.23" height="356.92" rx="11.92" ry="11.92"/>
        <line class="cls-6" x1="72.51" y1="1059.49" x2="672.97" y2="1059.49"/>
        <path class="cls-1" d="M659.44,1046.41H84.56c-7.01,0-12.69-5.68-12.69-12.69v-24.28c0-7.01,5.68-12.69,12.69-12.69h574.88c7.01,0,12.69,5.68,12.69,12.69v24.28c0,7.01-5.68,12.69-12.69,12.69"/>
        <path class="cls-2" d="M679.68,100.99H64.32c-3.83,0-6.94-3.11-6.94-6.94v-29.73c0-3.83,3.11-6.94,6.94-6.94h615.35c3.83,0,6.94,3.11,6.94,6.94v29.73c0,3.83-3.11,6.94-6.94,6.94"/>
        <rect class="cls-8" x="57.38" y="57.38" width="629.23" height="43.61" rx="6.94" ry="6.94"/>
        <rect class="cls-7" x="57.38" y="57.38" width="629.23" height="43.61" rx="6.94" ry="6.94"/>
      </g>
    </g>
  </g>
</svg>