<?xml version="1.0" encoding="UTF-8" standalone="no"?><!DOCTYPE svg PUBLIC "-//W3C//DTD SVG 1.1//EN" "http://www.w3.org/Graphics/SVG/1.1/DTD/svg11.dtd"><svg width="100%" height="100%" viewBox="0 0 1000 1000" version="1.1" xmlns="http://www.w3.org/2000/svg" xmlns:xlink="http://www.w3.org/1999/xlink" xml:space="preserve" xmlns:serif="http://www.serif.com/" style="fill-rule:evenodd;clip-rule:evenodd;stroke-linejoin:round;stroke-miterlimit:2;"><rect x="0" y="0" width="1000" height="1000" style="fill:#05080b;"/><path d="M688.683,176.53c58.093,-0 103.302,16.983 135.627,50.948c32.326,33.965 48.489,83.039 48.489,147.222l-0,302.174l-113.843,0l0,-298.66c0,-34.668 -9.018,-60.787 -27.055,-78.355c-18.037,-17.568 -41.812,-26.352 -71.327,-26.352c-32.326,-0 -58.092,9.252 -77.3,27.758c-19.208,18.505 -28.812,46.497 -28.812,83.976l-0,291.633l-113.843,0l0,-298.66c0,-34.668 -8.432,-60.787 -25.298,-78.355c-16.866,-17.568 -39.821,-26.352 -68.868,-26.352c-31.857,-0 -57.389,9.252 -76.597,27.758c-19.208,18.505 -28.812,46.497 -28.812,83.976l-0,291.633l-113.843,0l0,-491.911l110.329,-0l0,60.435c14.992,-22.019 34.902,-39.002 59.732,-50.948c24.83,-11.947 53.408,-17.92 85.733,-17.92c33.731,-0 63.246,6.207 88.544,18.622c25.299,12.415 44.741,30.335 58.327,53.759c16.866,-23.424 39.002,-41.344 66.408,-53.759c27.407,-12.415 58.21,-18.622 92.409,-18.622Z" style="fill:#fff;fill-rule:nonzero;"/><path d="M872.799,823.47l-0,-81.005l-745.598,-0.002l0,81.005l745.598,0.002Z" style="fill:#fff;"/></svg>