<?xml version="1.0" encoding="UTF-8" standalone="no"?><!DOCTYPE svg PUBLIC "-//W3C//DTD SVG 1.1//EN" "http://www.w3.org/Graphics/SVG/1.1/DTD/svg11.dtd"><svg width="100%" height="100%" viewBox="0 0 4167 4167" version="1.1" xmlns="http://www.w3.org/2000/svg" xmlns:xlink="http://www.w3.org/1999/xlink" xml:space="preserve" xmlns:serif="http://www.serif.com/" style="fill-rule:evenodd;clip-rule:evenodd;stroke-linejoin:round;stroke-miterlimit:2;"><rect x="0" y="0" width="4166.67" height="4166.67" style="fill:#050910;"/><path d="M1568.55,2874.75c-120.176,-1.227 -237.901,-30.045 -353.172,-86.454c-141.024,-67.446 -228.704,-159.418 -263.04,-275.916c-85.84,-288.179 -23.913,-574.518 185.783,-859.018c129.988,-175.36 247.099,-304.121 351.333,-386.283c98.104,-76.03 161.258,-104.235 189.463,-84.614c19.62,14.716 29.431,70.512 29.431,167.389l-0,1247.14c-0,134.892 -1.227,207.244 -3.679,217.054c-12.263,41.694 -57.636,61.928 -136.119,60.702Zm1471.55,-1741.95c-18.394,-89.519 -126.308,-201.112 -323.741,-334.778c-202.339,-138.571 -363.596,-202.951 -483.773,-193.141c-82.162,6.132 -242.806,92.585 -481.933,259.361c-219.507,153.287 -385.056,277.142 -496.649,371.567c-505.233,426.75 -779.922,781.149 -824.069,1063.2c-44.146,278.369 87.067,527.919 393.64,748.652c160.645,116.498 349.494,180.878 566.548,193.141c149.607,8.584 296.763,-6.744 441.465,-45.986c93.199,-25.752 163.097,-70.512 209.696,-134.279c39.242,-55.183 58.862,-118.95 58.862,-191.302c0,-42.92 -1.226,-340.909 -3.678,-893.967c-1.227,-554.285 -1.84,-848.595 -1.84,-882.931c0,-90.746 19.621,-160.032 58.862,-207.857c29.431,-35.563 65.607,-55.183 108.527,-58.862c44.147,-4.905 96.877,23.299 158.192,84.614c58.862,58.862 100.556,122.629 125.082,191.302c112.819,326.194 175.36,495.422 187.623,507.685c58.862,58.862 139.797,52.731 242.806,-18.394c44.146,-29.431 71.125,-91.972 80.935,-187.623c8.584,-84.614 3.066,-174.747 -16.555,-270.398Zm-1471.55,1741.95c-120.176,-1.227 -237.901,-30.045 -353.172,-86.454c-141.024,-67.446 -228.704,-159.418 -263.04,-275.916c-85.84,-288.179 -23.913,-574.518 185.783,-859.018c129.988,-175.36 247.099,-304.121 351.333,-386.283c98.104,-76.03 161.258,-104.235 189.463,-84.614c19.62,14.716 29.431,70.512 29.431,167.389l-0,1247.14c-0,134.892 -1.227,207.244 -3.679,217.054c-12.263,41.694 -57.636,61.928 -136.119,60.702Zm1471.55,-1741.95c-18.394,-89.519 -126.308,-201.112 -323.741,-334.778c-202.339,-138.571 -363.596,-202.951 -483.773,-193.141c-82.162,6.132 -242.806,92.585 -481.933,259.361c-219.507,153.287 -385.056,277.142 -496.649,371.567c-505.233,426.75 -779.922,781.149 -824.069,1063.2c-44.146,278.369 87.067,527.919 393.64,748.652c160.645,116.498 349.494,180.878 566.548,193.141c149.607,8.584 296.763,-6.744 441.465,-45.986c93.199,-25.752 163.097,-70.512 209.696,-134.279c39.242,-55.183 58.862,-118.95 58.862,-191.302c0,-42.92 -1.226,-340.909 -3.678,-893.967c-1.227,-554.285 -1.84,-848.595 -1.84,-882.931c0,-90.746 19.621,-160.032 58.862,-207.857c29.431,-35.563 65.607,-55.183 108.527,-58.862c44.147,-4.905 96.877,23.299 158.192,84.614c58.862,58.862 100.556,122.629 125.082,191.302c112.819,326.194 175.36,495.422 187.623,507.685c58.862,58.862 139.797,52.731 242.806,-18.394c44.146,-29.431 71.125,-91.972 80.935,-187.623c8.584,-84.614 3.066,-174.747 -16.555,-270.398Z" style="fill:#fff;fill-rule:nonzero;"/><path d="M3306.39,1891.62c-0,-33.912 -8.667,-54.26 -26,-61.042c-31.651,-12.058 -102.49,-0.754 -212.517,33.912c-182.373,58.028 -353.442,147.33 -513.207,267.907c-217.792,163.533 -326.689,336.109 -326.689,517.729c0,235.879 151.099,441.99 453.295,618.335c97.969,57.274 204.228,107.012 318.776,149.214c88.926,31.651 143.186,47.477 162.779,47.477c-51.999,0 -153.359,-57.274 -304.08,-171.822c-222.314,-169.562 -333.471,-383.963 -333.471,-643.204c-0,-234.372 86.288,-417.876 258.864,-550.51c57.274,-43.71 118.693,-77.622 184.257,-101.737c52.752,-19.594 84.78,-27.13 96.085,-22.609c12.057,5.276 18.84,25.623 20.347,61.043c-0,-6.783 -0,22.985 -0,89.302c-0,18.087 -0.754,137.533 -2.261,358.34c-1.507,221.561 -2.261,339.877 -2.261,354.949c0,21.855 15.073,32.405 45.217,31.652c24.115,-1.507 53.883,-9.42 89.302,-23.739c61.042,-24.115 91.564,-47.854 91.564,-71.216l-0,-883.981Z" style="fill:#fff;fill-rule:nonzero;"/><path d="M3745.06,1989.22c-0,-33.912 -8.667,-54.259 -26,-61.042c-31.651,-12.058 -102.49,-0.753 -212.517,33.912c-182.373,58.028 -353.442,147.331 -513.207,267.908c-217.792,163.533 -326.688,336.109 -326.688,517.728c-0,235.879 151.098,441.991 453.295,618.335c97.968,57.274 204.227,107.012 318.775,149.214c88.926,31.652 143.186,47.478 162.78,47.478c-51.999,-0 -153.359,-57.275 -304.081,-171.823c-222.314,-169.562 -333.471,-383.963 -333.471,-643.204c-0,-234.372 86.288,-417.875 258.864,-550.51c57.274,-43.709 118.693,-77.622 184.257,-101.737c52.752,-19.594 84.781,-27.13 96.085,-22.608c12.058,5.275 18.84,25.622 20.347,61.042c0,-6.782 0,22.985 0,89.302c0,18.087 -0.753,137.534 -2.261,358.341c-1.507,221.56 -2.26,339.877 -2.26,354.949c-0,21.854 15.072,32.405 45.216,31.651c24.116,-1.507 53.883,-9.42 89.303,-23.738c61.042,-24.116 91.563,-47.854 91.563,-71.216l-0,-883.982Z" style="fill:#fff;fill-rule:nonzero;"/></svg>